<svg width="162" height="280" viewBox="0 0 162 280" fill="none" xmlns="http://www.w3.org/2000/svg" color="#ffffff">
<path d="M12.3008 21.0002C19.2308 10.3102 25.4408 1.20021 26.1108 0.770209C26.7808 0.340209 27.9908 -0.00979091 28.8208 0.00020909C29.6408 0.0102091 41.6807 6.98021 80.8207 30.9502L106.571 15.2902C128.361 2.03021 132.661 -0.229791 134.561 0.540209C135.911 1.09021 141.781 9.18021 149.371 20.9502C158.411 34.9602 161.861 41.1402 161.631 42.9102C161.391 44.8602 158.701 47.0202 148.821 53.2002C141.941 57.5102 135.991 61.3502 135.591 61.7402C135.191 62.1302 133.951 65.7102 132.841 69.7002C131.731 73.6902 129.241 79.9902 127.311 83.7002C125.381 87.4102 122.911 92.0202 121.811 93.9502C120.431 96.3702 119.811 99.3002 119.811 103.45C119.801 106.75 120.661 112.83 121.711 116.95C122.761 121.07 127.211 132.55 131.601 142.45C136.001 152.35 141.261 165.63 143.291 171.95C145.321 178.27 148.031 187.95 149.311 193.45C150.581 198.95 152.151 206.83 153.931 218.45L149.621 223.88C147.261 226.87 141.891 232.72 137.711 236.88C133.521 241.04 126.101 247.31 121.211 250.8C116.321 254.3 108.271 259.2 103.321 261.69C98.3708 264.18 91.6208 267.25 88.3207 268.49C85.0207 269.74 78.2707 271.89 73.3207 273.27C68.3708 274.65 59.8208 276.57 54.3208 277.53C47.3108 278.76 38.6408 279.31 25.3208 279.37C11.8508 279.43 5.66075 279.09 4.07075 278.2C2.26075 277.19 1.82075 276.08 1.82075 272.45C1.82075 269.97 2.70075 259.74 3.79075 249.7C4.87075 239.66 6.22075 228.08 6.80075 223.95C7.37075 219.83 8.54075 212.63 9.39075 207.95C10.2508 203.27 12.0808 194.95 13.4708 189.45C14.8508 183.95 17.3507 175.17 19.0107 169.95C20.6807 164.73 25.6408 152.35 30.0408 142.45C34.4308 132.55 38.9408 120.85 40.0508 116.45C41.4408 110.95 41.9308 106.42 41.6308 101.95C41.3408 97.5102 40.5308 94.5002 39.1007 92.4502C37.9408 90.8002 35.3908 86.0802 33.4408 81.9502C31.4808 77.8302 29.1808 71.7502 28.3308 68.4502C27.4708 65.1502 26.4508 62.1302 26.0508 61.7402C25.6508 61.3502 19.6908 57.5102 12.8208 53.2002C2.94075 47.0202 0.250751 44.8602 0.0107508 42.9102C-0.219249 41.1402 3.22075 35.0002 12.3008 21.0002Z" fill="#ffffff"/>
</svg>
